<?xml version="1.0" standalone="no"?>
<!DOCTYPE svg PUBLIC "-//W3C//DTD SVG 20010904//EN"
 "http://www.w3.org/TR/2001/REC-SVG-20010904/DTD/svg10.dtd">
<svg version="1.0" xmlns="http://www.w3.org/2000/svg"
 width="736.000000pt" height="736.000000pt" viewBox="0 0 736.000000 736.000000"
 preserveAspectRatio="xMidYMid meet">

<g transform="translate(0.000000,736.000000) scale(0.100000,-0.100000)"
fill="#000000" stroke="none">
<path d="M1900 5773 c1 -16 7 -75 16 -133 8 -58 16 -118 18 -135 12 -112 18
-137 40 -145 20 -8 20 -8 -9 -20 -16 -6 -32 -15 -35 -21 -4 -5 -33 16 -66 46
-86 81 -86 81 -176 185 -45 52 -86 95 -92 95 -15 0 -36 -45 -36 -76 0 -27 49
-97 197 -282 49 -61 69 -95 66 -108 -3 -10 -11 -19 -17 -19 -26 0 -120 33
-134 46 -8 9 -21 13 -29 10 -8 -3 -55 17 -105 44 -115 64 -144 66 -95 9 12
-14 63 -54 114 -87 50 -34 94 -66 98 -72 3 -5 18 -10 32 -10 34 0 193 -51 193
-62 0 -5 -11 -6 -25 -2 -71 18 31 -78 106 -100 70 -21 134 -20 210 4 59 18
151 79 121 80 -7 0 15 21 50 48 68 51 158 156 158 183 0 27 -24 29 -67 4 l-41
-23 4 40 c2 22 6 44 9 49 3 5 1 19 -6 31 -6 13 -8 20 -4 16 7 -7 39 41 32 48
-7 7 -80 -72 -104 -113 -24 -41 -24 -45 -9 -68 21 -33 20 -35 -10 -22 -24 12
-25 14 -18 72 3 33 8 79 9 102 2 23 5 45 8 50 3 5 11 60 18 121 11 100 10 115
-6 157 -9 26 -21 43 -25 38 -4 -4 -20 -55 -35 -113 -15 -58 -34 -113 -42 -122
-8 -9 -12 -22 -8 -28 4 -7 2 -46 -5 -87 -13 -73 -14 -74 -39 -68 -14 4 -26 7
-26 8 -4 16 -33 93 -49 127 -11 25 -21 56 -21 70 -1 14 -12 70 -24 125 -26
114 -42 135 -102 135 -36 0 -39 -2 -39 -27z m-127 -388 c-3 -9 -8 -14 -10 -11
-3 3 -2 9 2 15 9 16 15 13 8 -4z"/>
<path d="M3137 5720 c-26 -21 -53 -27 -42 -10 14 22 -7 8 -47 -33 -92 -94
-163 -191 -187 -259 -25 -69 -81 -247 -87 -273 -2 -11 -8 -31 -13 -45 -6 -14
-11 -36 -13 -50 -2 -14 -7 -24 -13 -23 -13 3 -19 61 -7 76 4 7 9 26 10 44 1
17 13 69 26 115 14 45 23 84 22 86 -2 1 -18 -30 -35 -70 -18 -40 -40 -89 -49
-108 -9 -19 -17 -40 -18 -47 -1 -7 -16 -38 -33 -69 -17 -32 -31 -68 -31 -81 0
-13 -6 -23 -14 -23 -7 0 -19 -6 -26 -14 -9 -12 -17 -13 -36 -4 -13 6 -24 15
-24 20 0 4 -7 8 -15 8 -8 0 -35 19 -60 42 -46 42 -59 78 -28 78 9 0 14 3 10 6
-3 3 -15 3 -27 -1 -17 -5 -20 -13 -17 -38 6 -60 -11 -129 -40 -159 -120 -127
-374 -126 -449 2 -10 16 -21 30 -25 30 -15 0 -39 -72 -39 -119 0 -37 9 -69 34
-120 18 -38 36 -82 39 -98 10 -58 92 -263 104 -263 18 0 17 70 -2 106 -8 16
-15 42 -15 58 0 28 -1 29 -15 10 -14 -19 -14 -18 -15 4 0 12 5 22 11 22 7 0 9
11 6 28 l-5 27 141 0 c138 0 144 1 207 31 110 52 156 105 175 199 6 27 10 33
12 20 2 -11 11 -42 18 -70 13 -46 18 -51 54 -62 23 -7 47 -13 55 -13 8 0 17
-7 20 -16 4 -10 12 -14 22 -10 12 4 14 1 9 -14 -4 -11 -2 -20 4 -20 6 0 11 -7
11 -16 0 -8 -4 -12 -10 -9 -5 3 -10 -3 -10 -14 0 -12 7 -21 15 -21 8 0 15 -7
15 -16 0 -8 -4 -12 -10 -9 -5 3 -10 -3 -10 -13 0 -11 7 -23 16 -26 13 -5 15
-14 9 -42 -4 -24 -3 -34 4 -29 6 3 11 -1 11 -9 0 -8 9 -23 19 -33 10 -10 21
-27 23 -38 2 -11 10 -19 17 -17 7 1 9 -2 6 -9 -9 -13 141 -159 220 -214 31
-22 70 -50 85 -62 15 -13 35 -23 45 -23 12 0 15 5 10 23 -9 29 -13 32 -62 46
-47 13 -148 91 -158 121 -4 12 -16 20 -28 21 -12 0 -16 3 -9 6 6 2 12 11 12
19 0 12 11 14 63 8 67 -8 77 -9 121 -6 19 1 27 6 23 16 -4 10 0 12 15 8 15 -4
17 -7 6 -14 -8 -6 1 -7 27 -3 28 4 36 3 25 -4 -8 -5 -11 -14 -6 -18 5 -4 11
-2 13 5 3 6 12 12 21 12 10 0 -19 15 -63 33 -113 46 -172 82 -234 146 -50 51
-120 175 -107 188 3 3 10 -7 16 -23 44 -115 130 -207 245 -260 91 -42 266 -89
390 -103 241 -29 811 -41 961 -20 111 15 260 55 324 86 32 15 84 56 126 97 92
92 115 147 122 298 9 202 -60 400 -182 522 -239 239 -972 350 -1466 223 -171
-45 -251 -83 -339 -162 -61 -56 -125 -167 -166 -287 -30 -89 -36 -122 -38
-206 -2 -108 -15 -110 -16 -2 -1 84 15 189 35 237 29 69 88 183 94 183 4 0 15
16 26 35 10 19 27 38 37 41 11 4 16 12 13 21 -5 11 -2 13 10 9 11 -4 15 -2 11
8 -4 9 0 12 13 9 21 -6 36 12 19 23 -8 4 -9 3 -5 -4 4 -7 3 -12 -3 -12 -17 0
-21 18 -5 24 8 3 14 14 13 23 -4 30 49 213 65 224 4 4 5 17 1 29 -4 14 -3 20
3 16 5 -3 12 1 15 8 3 8 1 17 -6 19 -7 3 0 15 18 31 35 30 29 35 -8 6z m1179
-286 c99 -20 262 -77 349 -122 135 -69 278 -247 258 -321 -8 -30 -48 -49 -130
-60 -55 -8 -223 -20 -280 -21 -6 0 -13 -12 -15 -27 -3 -26 -6 -28 -41 -25 -37
3 -39 2 -37 -25 4 -50 2 -53 -39 -53 -37 0 -39 2 -35 28 4 33 -7 152 -13 134
-4 -9 -12 -7 -33 8 -32 23 -50 26 -51 8 0 -7 -10 16 -23 52 -12 36 -42 107
-67 159 -30 65 -40 96 -31 99 6 2 12 13 12 23 0 13 4 18 12 13 8 -5 9 -2 4 11
-5 14 0 24 16 37 19 15 20 18 6 18 -26 0 -22 20 5 21 12 0 16 3 10 6 -7 2 -13
10 -13 17 0 7 -10 18 -22 24 -37 17 68 15 158 -4z m-842 -496 c-4 -62 -8 -115
-10 -117 -2 -2 -19 0 -39 3 -32 6 -35 10 -35 41 0 31 -3 34 -32 37 -30 3 -33
6 -34 36 -1 39 14 48 55 34 24 -8 31 -7 35 5 9 24 5 40 -4 18 -7 -16 -9 -12
-8 18 2 36 3 37 40 37 l38 0 -6 -112z m-734 68 c0 -11 -19 -15 -25 -6 -3 5 1
10 9 10 9 0 16 -2 16 -4z m26 -203 c-11 -11 -19 6 -11 24 8 17 8 17 12 0 3
-10 2 -21 -1 -24z m54 -158 c0 -5 -5 -3 -10 5 -5 8 -10 20 -10 25 0 6 5 3 10
-5 5 -8 10 -19 10 -25z m950 -34 l0 -40 -37 6 c-21 3 -39 7 -41 8 -1 1 1 16 4
33 6 28 10 32 40 32 33 0 34 -1 34 -39z m330 -11 c0 -40 0 -40 -39 -40 -45 0
-56 -11 -53 -54 l3 -29 -83 6 c-46 4 -99 7 -118 7 -35 0 -36 1 -35 38 l0 37
123 -3 122 -4 0 41 0 41 40 0 40 0 0 -40z m-1296 -56 c3 -8 2 -12 -4 -9 -6 3
-10 10 -10 16 0 14 7 11 14 -7z m-37 -31 c-3 -3 -11 -2 -17 2 -9 6 -9 10 1 16
14 8 27 -7 16 -18z m70 -34 c1 -12 -4 -15 -18 -12 -20 6 -23 12 -13 37 7 19
29 2 31 -25z m-57 -59 c0 -11 -4 -20 -9 -20 -5 0 -7 9 -4 20 3 11 7 20 9 20 2
0 4 -9 4 -20z m70 -10 c0 -5 -5 -10 -11 -10 -5 0 -7 5 -4 10 3 6 8 10 11 10 2
0 4 -4 4 -10z m-853 -32 c-3 -8 -6 -5 -6 6 -1 11 2 17 5 13 3 -3 4 -12 1 -19z
m870 -64 c-3 -3 -12 -4 -19 -1 -8 3 -5 6 6 6 11 1 17 -2 13 -5z m-2 -34 c-3
-5 -10 -10 -16 -10 -5 0 -9 5 -9 10 0 6 7 10 16 10 8 0 12 -4 9 -10z"/>
<path d="M4428 4873 c7 -3 16 -2 19 1 4 3 -2 6 -13 5 -11 0 -14 -3 -6 -6z"/>
<path d="M3417 4863 c-4 -3 -7 -11 -7 -17 0 -6 5 -4 10 4 7 11 10 11 10 2 0
-7 5 -10 10 -7 6 4 8 11 5 16 -7 11 -19 12 -28 2z"/>
<path d="M2795 5390 c4 -6 11 -8 16 -5 14 9 11 15 -7 15 -8 0 -12 -5 -9 -10z"/>
<path d="M2609 5313 c-13 -16 -12 -17 4 -4 16 13 21 21 13 21 -2 0 -10 -8 -17
-17z"/>
<path d="M2559 5273 c-13 -16 -12 -17 4 -4 9 7 17 15 17 17 0 8 -8 3 -21 -13z"/>
<path d="M2458 5140 c-7 -11 -19 -20 -26 -20 -7 0 -10 -4 -7 -10 11 -17 24
-11 40 20 17 34 12 41 -7 10z"/>
<path d="M1996 4557 c3 -10 9 -15 12 -12 3 3 0 11 -7 18 -10 9 -11 8 -5 -6z"/>
<path d="M2575 4502 c4 -18 12 -97 19 -175 8 -97 15 -135 20 -118 13 39 -20
301 -40 320 -4 3 -3 -9 1 -27z"/>
<path d="M2016 4292 c-3 -5 1 -18 9 -28 14 -18 14 -18 15 3 0 23 -15 39 -24
25z"/>
<path d="M3238 4243 c7 -3 16 -2 19 1 4 3 -2 6 -13 5 -11 0 -14 -3 -6 -6z"/>
<path d="M2040 4223 c0 -4 5 -15 10 -23 8 -13 10 -13 10 2 0 9 -4 20 -10 23
-5 3 -10 3 -10 -2z"/>
<path d="M2600 4154 c0 -11 -5 -25 -10 -30 -6 -6 -12 -33 -14 -60 -1 -27 -6
-58 -10 -69 -7 -19 -6 -18 12 2 13 15 21 43 25 94 3 40 4 75 2 78 -3 2 -5 -5
-5 -15z"/>
<path d="M3180 4060 c0 -5 5 -10 10 -10 6 0 10 5 10 10 0 6 -4 10 -10 10 -5 0
-10 -4 -10 -10z"/>
<path d="M3176 4032 c-3 -6 -1 -14 5 -17 15 -10 25 3 12 16 -7 7 -13 7 -17 1z"/>
<path d="M3214 4016 c-8 -21 2 -32 39 -41 17 -5 27 -3 27 4 0 6 -4 11 -10 11
-5 0 -18 10 -29 22 -19 19 -21 20 -27 4z"/>
<path d="M3275 4000 c3 -5 13 -10 21 -10 8 0 14 5 14 10 0 6 -9 10 -21 10 -11
0 -17 -4 -14 -10z"/>
<path d="M3338 3993 c-14 -2 -31 -10 -38 -17 -12 -16 -5 -18 137 -46 51 -10
99 -25 108 -34 9 -9 25 -16 36 -16 13 0 19 -7 19 -21 0 -20 -4 -21 -55 -16
l-55 6 -24 -42 c-19 -31 -22 -43 -13 -49 7 -4 -15 -6 -48 -4 -33 2 -103 -1
-155 -6 -52 -6 -103 -11 -112 -11 -9 -1 -14 -5 -12 -9 3 -4 -4 -8 -16 -8 -12
0 -31 -5 -43 -12 -12 -7 -28 -13 -36 -14 -8 -2 -33 -17 -57 -34 -24 -17 -44
-26 -44 -21 0 6 5 11 10 11 22 0 8 28 -16 33 -17 3 -34 -3 -52 -18 -22 -18
-34 -21 -63 -16 -31 5 -47 19 -105 91 -37 47 -87 107 -111 134 -24 26 -43 54
-43 62 0 22 -15 17 -123 -38 -101 -52 -102 -53 -67 -58 58 -10 84 -31 170
-135 46 -55 86 -102 90 -105 7 -5 18 -40 34 -112 3 -14 17 -40 31 -56 20 -24
25 -40 23 -74 -3 -38 0 -43 20 -46 12 -2 20 -8 17 -13 -13 -20 -54 -253 -66
-369 -19 -190 -17 -433 5 -577 11 -68 23 -123 28 -123 4 0 8 -12 8 -27 0 -40
24 -113 39 -123 8 -4 11 -12 7 -18 -11 -18 36 -58 89 -78 28 -10 75 -18 108
-18 32 1 53 -2 46 -6 -6 -4 15 -12 47 -18 53 -9 88 -6 57 5 -8 3 -4 13 12 31
17 19 25 38 25 64 0 20 5 40 11 43 6 4 8 13 5 20 -3 8 0 16 7 18 17 5 -8 34
-36 43 -22 7 -79 48 -125 91 -15 14 -19 22 -11 25 9 3 10 11 4 24 -5 10 -7 70
-6 133 2 82 -1 116 -10 121 -9 6 -10 32 -1 116 5 60 11 125 12 144 5 139 5
342 0 490 -6 174 -6 175 19 225 14 27 30 53 36 57 38 26 63 46 82 65 13 12 25
17 29 12 3 -6 15 -4 30 6 27 17 179 39 225 33 16 -3 29 -2 29 2 0 13 258 0
470 -25 124 -14 255 -29 292 -32 l68 -6 -16 46 c-15 45 -17 47 -65 53 l-49 7
0 48 c0 47 1 48 35 55 19 3 35 10 35 14 0 8 -20 10 -295 29 -201 14 -349 29
-410 41 -27 6 -70 12 -94 14 -42 4 -66 21 -55 38 3 4 4 7 2 7 -2 -1 -15 -4
-30 -6z m-176 -292 c-17 -17 -32 -35 -32 -40 0 -6 -12 -11 -28 -11 -15 0 -42
-4 -60 -9 -39 -11 -42 2 -7 25 27 18 134 63 150 64 5 0 -5 -13 -23 -29z m-22
-1581 c0 -5 -4 -10 -10 -10 -5 0 -10 5 -10 10 0 6 5 10 10 10 6 0 10 -4 10
-10z"/>
<path d="M4818 3222 l-37 -3 -7 -65 c-8 -76 0 -331 11 -357 12 -29 75 -19 94
15 9 15 18 28 21 28 3 -1 35 -56 72 -124 61 -112 67 -130 69 -187 1 -35 -1
-73 -4 -84 -4 -11 -3 -26 2 -34 20 -32 182 58 214 120 23 43 17 114 -14 169
-26 46 -43 55 -63 35 -8 -8 -17 -15 -20 -15 -3 0 -26 39 -52 88 -26 48 -55 98
-64 112 -11 17 -15 38 -12 66 7 72 -46 144 -106 144 -25 0 -40 18 -48 59 -8
37 -8 37 -56 33z"/>
<path d="M2760 1992 c0 -5 11 -19 25 -32 13 -12 22 -27 19 -31 -3 -5 -1 -9 5
-9 5 0 12 -8 15 -17 3 -10 19 -32 35 -49 17 -18 34 -47 40 -65 9 -31 10 -32
16 -11 7 22 25 31 25 11 0 -14 62 -7 68 8 2 7 -8 17 -22 23 -26 9 -36 30 -15
30 5 0 7 -4 4 -10 -3 -6 5 -10 19 -10 13 0 26 5 28 11 2 7 16 13 31 15 15 1
37 5 49 9 16 4 19 3 10 -3 -11 -7 -10 -10 3 -16 22 -8 27 -8 21 3 -10 15 153
5 352 -23 106 -15 201 -25 210 -23 11 3 8 5 -9 6 -40 2 -381 59 -519 87 -154
31 -257 57 -332 84 -63 22 -78 24 -78 12z m443 -129 c-7 -2 -19 -2 -25 0 -7 3
-2 5 12 5 14 0 19 -2 13 -5z m-228 -63 c3 -5 1 -10 -4 -10 -6 0 -11 5 -11 10
0 6 2 10 4 10 3 0 8 -4 11 -10z"/>
<path d="M5970 1835 c-41 -12 -42 -13 -15 -15 29 -2 30 -2 5 -9 -14 -4 -43
-11 -65 -14 l-40 -6 35 14 c19 7 32 14 29 14 -12 2 -381 -89 -451 -110 -77
-24 -82 -44 -9 -34 47 6 48 6 74 -34 15 -23 45 -53 67 -67 22 -15 40 -35 40
-45 0 -34 12 -49 40 -49 56 0 195 94 258 175 17 22 43 53 57 69 14 17 25 41
25 58 0 19 5 28 16 28 20 0 14 34 -6 37 -8 0 -35 -5 -60 -12z"/>
<path d="M3733 1793 c9 -2 25 -2 35 0 9 3 1 5 -18 5 -19 0 -27 -2 -17 -5z"/>
<path d="M3818 1783 c7 -3 16 -2 19 1 4 3 -2 6 -13 5 -11 0 -14 -3 -6 -6z"/>
<path d="M6099 1584 c-35 -31 -105 -83 -156 -116 l-91 -61 34 -47 c19 -26 41
-53 49 -60 8 -7 15 -19 15 -27 0 -27 120 -142 159 -153 44 -12 61 -13 61 -2 0
5 -19 38 -42 73 -23 35 -49 79 -59 98 l-17 35 47 22 c25 13 61 37 79 54 l33
31 -26 45 c-15 25 -24 49 -20 52 9 9 55 -45 55 -65 0 -9 6 -24 14 -32 7 -9 26
-68 41 -131 15 -63 31 -119 35 -123 4 -5 17 -4 29 2 16 9 21 21 21 51 0 24 6
42 15 47 12 7 6 21 -35 77 -48 66 -50 70 -35 92 21 33 18 54 -4 27 -11 -13
-21 -23 -24 -23 -8 0 -107 129 -107 139 0 5 5 11 12 13 13 5 4 38 -10 38 -5 0
-37 -25 -73 -56z m56 -95 l38 -50 -29 -31 c-35 -36 -113 -77 -134 -70 -24 8
-91 64 -88 73 4 11 158 129 168 129 5 0 25 -23 45 -51z"/>
<path d="M6230 1253 c-32 -16 -72 -17 -88 -1 -19 19 -14 -4 14 -66 14 -31 32
-56 40 -57 8 -1 25 -1 39 -1 14 0 30 0 35 1 13 1 11 33 -3 92 -12 44 -13 45
-37 32z"/>
</g>
</svg>
