<?xml version="1.0" encoding="UTF-8"?>
<svg version="1.1" xmlns="http://www.w3.org/2000/svg" width="500" height="500">
<path d="M0 0 C165 0 330 0 500 0 C500 165 500 330 500 500 C335 500 170 500 0 500 C0 335 0 170 0 0 Z " fill="#F2F1F0" transform="translate(0,0)"/>
<path d="M0 0 C1.26392578 -0.01611328 2.52785156 -0.03222656 3.83007812 -0.04882812 C29.69535787 -0.062072 54.36220557 10.04343777 74.1875 26.3125 C75.03828125 27.00988281 75.8890625 27.70726562 76.765625 28.42578125 C93.25036143 42.60369135 104.77591798 60.5906374 111.1875 81.3125 C111.38569336 81.94978027 111.58388672 82.58706055 111.78808594 83.24365234 C114.47782868 92.18149059 115.80101016 100.99162075 116.32910156 110.31152344 C116.68308972 115.29769943 117.66943249 118.87214365 120.08398438 123.24389648 C122.14438404 127.10623417 123.59266384 131.24159009 125.1875 135.3125 C126.66112832 138.96959813 128.16790763 142.61179506 129.6875 146.25 C130.25404297 147.64702148 130.25404297 147.64702148 130.83203125 149.07226562 C131.39470703 150.4112793 131.39470703 150.4112793 131.96875 151.77734375 C132.29939453 152.577771 132.63003906 153.37819824 132.97070312 154.20288086 C134.36644281 156.62274174 135.94603223 157.69696152 138.1875 159.3125 C138.1875 159.9725 138.1875 160.6325 138.1875 161.3125 C132.5775 161.3125 126.9675 161.3125 121.1875 161.3125 C121.1875 160.6525 121.1875 159.9925 121.1875 159.3125 C121.8475 159.3125 122.5075 159.3125 123.1875 159.3125 C122.83816406 158.42046875 122.48882812 157.5284375 122.12890625 156.609375 C121.67386719 155.43890625 121.21882813 154.2684375 120.75 153.0625 C120.29753906 151.90234375 119.84507812 150.7421875 119.37890625 149.546875 C118.48599367 147.12283692 117.72955635 144.82963525 117.1875 142.3125 C116.5275 142.3125 115.8675 142.3125 115.1875 142.3125 C115.17332031 142.9209375 115.15914063 143.529375 115.14453125 144.15625 C113.92967145 166.48340301 102.33474598 187.6050248 88.1875 204.3125 C87.4759375 205.15941406 86.764375 206.00632812 86.03125 206.87890625 C67.67547189 228.0462208 40.79703515 240.91495908 13.1875 244.3125 C8.93259807 244.59031033 4.7006243 244.6470094 0.4375 244.625 C-0.69921143 244.62008545 -1.83592285 244.6151709 -3.00708008 244.61010742 C-33.97882919 244.18076989 -62.24549417 230.87729113 -83.72314453 208.7980957 C-98.18815681 193.40137961 -109.64667629 173.34109689 -112.9375 152.3125 C-114.55383395 144.17634708 -118.96868154 139.18389488 -124.28222656 133.09765625 C-126.86090026 130.08947787 -129.26291557 126.9450898 -131.6875 123.8125 C-132.55824115 122.69662351 -133.43057202 121.58198521 -134.3046875 120.46875 C-134.66933105 120.00275391 -135.03397461 119.53675781 -135.40966797 119.05664062 C-137.50928297 116.44618995 -139.66372327 113.88261428 -141.8125 111.3125 C-141.93624395 117.34473203 -142.02690813 123.37622285 -142.0871582 129.40942383 C-142.11227806 131.46098706 -142.14638036 133.51246101 -142.18969727 135.5637207 C-142.25046002 138.51536091 -142.27873492 141.4658165 -142.30078125 144.41796875 C-142.32658768 145.33273483 -142.3523941 146.24750092 -142.37898254 147.18998718 C-142.38101894 151.83005893 -142.37869115 153.6427393 -139.28198242 157.3059082 C-138.05958862 158.29917114 -138.05958862 158.29917114 -136.8125 159.3125 C-136.8125 159.9725 -136.8125 160.6325 -136.8125 161.3125 C-140.7725 161.3125 -144.7325 161.3125 -148.8125 161.3125 C-148.32644287 160.56556885 -147.84038574 159.8186377 -147.33959961 159.04907227 C-144.91359554 154.1588137 -145.3645308 148.86877229 -145.37890625 143.52734375 C-145.37104347 141.82657433 -145.37104347 141.82657433 -145.36302185 140.09144592 C-145.35661231 137.7002138 -145.35792476 135.30895011 -145.36645508 132.91772461 C-145.37497895 129.25903356 -145.34616389 125.60189688 -145.31445312 121.94335938 C-145.31284134 119.61718797 -145.31341821 117.2910138 -145.31640625 114.96484375 C-145.30517227 113.87203598 -145.29393829 112.77922821 -145.28236389 111.65330505 C-145.30533089 105.54019293 -145.30533089 105.54019293 -147.84350586 100.08422852 C-148.49327393 99.49955811 -149.14304199 98.9148877 -149.8125 98.3125 C-145.89175984 97.42521451 -142.72317494 97.30439326 -138.8125 98.3125 C-135.01284019 101.58073886 -132.16799113 105.33625473 -129.23144531 109.37792969 C-127.28207137 112.03567903 -125.22946361 114.60602187 -123.17773438 117.18505859 C-121.74971118 118.98412452 -120.33751447 120.79448432 -118.9296875 122.609375 C-117.44409732 124.52560442 -117.44409732 124.52560442 -115.8125 126.3125 C-115.8031543 125.55332275 -115.79380859 124.79414551 -115.78417969 124.01196289 C-115.23389414 88.35939387 -106.39016112 58.01511486 -80.34008789 32.36767578 C-58.14356197 11.26591199 -30.62362029 -0.07737145 0 0 Z " fill="#EA9898" transform="translate(242.8125,123.6875)"/>
<path d="M0 0 C4.10751239 -0.09985537 8.21454209 -0.17192603 12.32299805 -0.21972656 C13.71667814 -0.23967995 15.1102763 -0.26685319 16.50366211 -0.30175781 C25.63651969 -0.52459036 33.98763716 -0.66468449 41.02734375 5.88671875 C43.10490545 10.40061788 42.76308196 15.18186264 42 20 C39.74619892 24.72224988 36.42263392 27.07649609 31.625 28.9375 C30.42875 29.288125 29.2325 29.63875 28 30 C28.9075 30.391875 29.815 30.78375 30.75 31.1875 C38.59610252 35.56321102 40.94552598 44.28764753 44.2890625 52.16015625 C44.91941406 53.60068359 44.91941406 53.60068359 45.5625 55.0703125 C45.93503906 55.94445801 46.30757813 56.81860352 46.69140625 57.71923828 C48.13575296 60.23660526 49.58088149 61.43946398 52 63 C50.16489032 64.83510968 47.64853236 64.23478884 45.203125 64.328125 C42.18340259 63.87837911 40.43974092 62.82783179 38 61 C36.4453125 58.64453125 36.4453125 58.64453125 35.125 55.8125 C34.62742187 54.760625 34.12984375 53.70875 33.6171875 52.625 C32.43947369 49.98510046 31.27752395 47.34163055 30.1328125 44.6875 C29.66270752 43.59924927 29.66270752 43.59924927 29.18310547 42.48901367 C28.56725738 41.05251819 27.95932502 39.61259992 27.35986328 38.16918945 C25.9845913 34.40168715 25.9845913 34.40168715 23 32 C21.29636178 31.77377919 19.58671299 31.59111527 17.875 31.4375 C16.96492188 31.35371094 16.05484375 31.26992187 15.1171875 31.18359375 C14.41851562 31.12300781 13.71984375 31.06242187 13 31 C13.08080588 35.58405928 13.19365921 40.16678144 13.3125 44.75 C13.33505859 46.05195313 13.35761719 47.35390625 13.38085938 48.6953125 C13.41630859 49.94570313 13.45175781 51.19609375 13.48828125 52.484375 C13.51446533 53.63647461 13.54064941 54.78857422 13.56762695 55.97558594 C13.81241864 59.41759072 13.81241864 59.41759072 17 63 C11.39 63 5.78 63 0 63 C0 62.34 0 61.68 0 61 C0.66 61 1.32 61 2 61 C2.04632915 53.48958306 2.08187214 45.97918094 2.10362434 38.46865368 C2.11406404 34.98124839 2.12822649 31.49394084 2.15087891 28.0065918 C2.17675512 23.99787454 2.18647123 19.98926003 2.1953125 15.98046875 C2.20563507 14.72727341 2.21595764 13.47407806 2.22659302 12.1829071 C2.22674408 11.02193008 2.22689514 9.86095306 2.22705078 8.66479492 C2.231492 7.64109299 2.23593323 6.61739105 2.24050903 5.56266785 C2.18180912 2.75864366 2.18180912 2.75864366 0 0 Z " fill="#35312E" transform="translate(393,222)"/>
<path d="M0 0 C0.33209473 0.84594727 0.33209473 0.84594727 0.67089844 1.70898438 C1.69348948 4.30749356 2.7217069 6.90374225 3.75 9.5 C4.09804688 10.386875 4.44609375 11.27375 4.8046875 12.1875 C6.67805532 16.90561155 8.6902833 21.45372702 11.01074219 25.96655273 C12.91278778 29.87626096 14.41501587 33.95423795 16 38 C17.47362832 41.65709813 18.98040763 45.29929506 20.5 48.9375 C20.87769531 49.86884766 21.25539063 50.80019531 21.64453125 51.75976562 C22.01964844 52.65244141 22.39476562 53.54511719 22.78125 54.46484375 C23.11189453 55.265271 23.44253906 56.06569824 23.78320312 56.89038086 C25.17894281 59.31024174 26.75853223 60.38446152 29 62 C29 62.66 29 63.32 29 64 C23.39 64 17.78 64 12 64 C12 63.34 12 62.68 12 62 C12.66 62 13.32 62 14 62 C13.51080078 60.74896484 13.51080078 60.74896484 13.01171875 59.47265625 C12.57472656 58.34730469 12.13773437 57.22195313 11.6875 56.0625 C11.25824219 54.96035156 10.82898438 53.85820312 10.38671875 52.72265625 C8.82080424 48.51894771 7.41856455 44.25569364 6 40 C-1.92 40.33 -9.84 40.66 -18 41 C-18.99 43.371875 -19.98 45.74375 -21 48.1875 C-21.46986328 49.29387817 -21.46986328 49.29387817 -21.94921875 50.42260742 C-23.43506353 54.06105999 -24.559011 57.0659601 -24 61 C-23.34 61.99 -22.68 62.98 -22 64 C-25.63 64 -29.26 64 -33 64 C-33 63.34 -33 62.68 -33 62 C-32.23413574 61.42459473 -31.46827148 60.84918945 -30.67919922 60.25634766 C-27.5737626 57.64103462 -26.63212586 55.64476357 -25.1328125 51.8984375 C-24.64264648 50.69405029 -24.15248047 49.48966309 -23.64746094 48.2487793 C-23.13930318 46.95778336 -22.63182868 45.6665183 -22.125 44.375 C-21.5976956 43.05794242 -21.06936981 41.74129332 -20.54003906 40.42504883 C-19.49490457 37.81951405 -18.45850472 35.21075471 -17.42871094 32.59912109 C-16.20159046 29.50783435 -14.94447117 26.43274633 -13.6640625 23.36328125 C-13.0253407 21.80497463 -12.3872548 20.24640711 -11.75 18.6875 C-11.4627002 18.00929199 -11.17540039 17.33108398 -10.87939453 16.63232422 C-8.9721268 11.84419933 -8.75277895 8.06241297 -9 3 C-2.25 0 -2.25 0 0 0 Z " fill="#36302D" transform="translate(352,221)"/>
<path d="M0 0 C3.92074016 -0.88728549 7.08932506 -1.00810674 11 0 C14.81960844 3.28539747 17.68072808 7.06853097 20.63378906 11.13134766 C22.37108791 13.50756019 24.19467397 15.80769964 26.02587891 18.11181641 C27.38737725 19.82810259 28.73334962 21.55574723 30.078125 23.28515625 C33.9226817 28.2028295 37.88490026 33.02552865 41.84912109 37.84692383 C42.37586426 38.49040771 42.90260742 39.1338916 43.4453125 39.796875 C43.91469238 40.36760742 44.38407227 40.93833984 44.86767578 41.52636719 C46 43 46 43 47 45 C47.04954105 39.82219834 47.08578636 34.64453554 47.10986328 29.46655273 C47.11990351 27.70611161 47.13353844 25.94568709 47.15087891 24.18530273 C47.17521436 21.65083715 47.18650296 19.11659261 47.1953125 16.58203125 C47.21079636 15.40674614 47.21079636 15.40674614 47.22659302 14.2077179 C47.22744548 10.02962028 47.02011712 6.69739342 45 3 C44.01 2.01 43.02 1.02 42 0 C45.96 0 49.92 0 54 0 C53.01 1.32 52.02 2.64 51 4 C50.5297869 6.82267351 50.5297869 6.82267351 50.56762695 9.96191406 C50.54783279 11.16285706 50.52803864 12.36380005 50.50764465 13.60113525 C50.50125473 14.89291687 50.49486481 16.18469849 50.48828125 17.515625 C50.47142992 18.85513961 50.45327906 20.19463846 50.43388367 21.53411865 C50.38642604 25.05215527 50.35658972 28.57012795 50.33044434 32.08837891 C50.30061711 35.68144355 50.2540943 39.27428797 50.20898438 42.8671875 C50.12299989 49.9113322 50.05563322 56.95554492 50 64 C46.43121263 60.46284752 43.04610867 56.84431016 39.8125 53 C39.33619141 52.43531006 38.85988281 51.87062012 38.36914062 51.28881836 C34.28740971 46.41304211 30.39887623 41.40458257 26.55078125 36.34375 C23.79742176 32.72289368 20.99720017 29.13973498 18.1875 25.5625 C17.74341797 24.99539307 17.29933594 24.42828613 16.84179688 23.84399414 C16.41318359 23.29864014 15.98457031 22.75328613 15.54296875 22.19140625 C15.17196045 21.71904541 14.80095215 21.24668457 14.41870117 20.76000977 C12.31165357 18.14605241 10.15332593 15.57595179 8 13 C7.87625605 19.03223203 7.78559187 25.06372285 7.7253418 31.09692383 C7.70022194 33.14848706 7.66611964 35.19996101 7.62280273 37.2512207 C7.56203998 40.20286091 7.53376508 43.1533165 7.51171875 46.10546875 C7.48591232 47.02023483 7.4601059 47.93500092 7.43351746 48.87748718 C7.43148106 53.51755893 7.43380885 55.3302393 10.53051758 58.9934082 C11.34544678 59.6555835 12.16037598 60.31775879 13 61 C13 61.66 13 62.32 13 63 C9.04 63 5.08 63 1 63 C1.72908569 61.87960327 1.72908569 61.87960327 2.47290039 60.73657227 C4.89890446 55.8463137 4.4479692 50.55627229 4.43359375 45.21484375 C4.44145653 43.51407433 4.44145653 43.51407433 4.44947815 41.77894592 C4.45588769 39.3877138 4.45457524 36.99645011 4.44604492 34.60522461 C4.43752105 30.94653356 4.46633611 27.28939688 4.49804688 23.63085938 C4.49965866 21.30468797 4.49908179 18.9785138 4.49609375 16.65234375 C4.50732773 15.55953598 4.51856171 14.46672821 4.53013611 13.34080505 C4.50716911 7.22769293 4.50716911 7.22769293 1.96899414 1.77172852 C1.31922607 1.18705811 0.66945801 0.6023877 0 0 Z " fill="#322D2A" transform="translate(93,222)"/>
<path d="M0 0 C6.67520882 -0.02464296 13.3503914 -0.04283267 20.02563477 -0.05493164 C22.29842591 -0.05997325 24.5712138 -0.06680637 26.84399414 -0.07543945 C30.10303551 -0.08751261 33.36203417 -0.09322987 36.62109375 -0.09765625 C37.64400009 -0.10281754 38.66690643 -0.10797882 39.72080994 -0.11329651 C40.66170975 -0.11337204 41.60260956 -0.11344757 42.57202148 -0.11352539 C43.40475082 -0.115746 44.23748016 -0.11796661 45.09544373 -0.12025452 C47 0 47 0 48 1 C48.07205511 2.68608966 48.08386068 4.37500659 48.0625 6.0625 C48.05347656 6.98160156 48.04445313 7.90070313 48.03515625 8.84765625 C48.02355469 9.55792969 48.01195312 10.26820313 48 11 C47.34 11 46.68 11 46 11 C44.7543976 9.49216551 43.50997392 7.98330121 42.27734375 6.46484375 C38.54338351 2.18277926 34.82254857 2.72781857 29 2 C29.33 21.8 29.66 41.6 30 62 C30.66 62 31.32 62 32 62 C32 62.66 32 63.32 32 64 C26.39 64 20.78 64 15 64 C15.99 62.35 16.98 60.7 18 59 C18.46575756 56.19973475 18.46575756 56.19973475 18.43237305 53.19995117 C18.45216721 52.05914597 18.47196136 50.91834076 18.49235535 49.7429657 C18.49874527 48.52196671 18.50513519 47.30096771 18.51171875 46.04296875 C18.52966995 44.78486893 18.54762115 43.5267691 18.56611633 42.23054504 C18.61105762 38.89817746 18.64338289 35.56617635 18.66955566 32.23364258 C18.69942125 28.8281529 18.74593079 25.42289431 18.79101562 22.01757812 C18.87598338 15.34515893 18.94431869 8.67272438 19 2 C17.56822213 2.11983379 16.13738486 2.25093746 14.70703125 2.38671875 C13.91014893 2.45850342 13.1132666 2.53028809 12.29223633 2.60424805 C7.08115288 3.50393558 3.4771889 7.25533503 0 11 C0 7.37 0 3.74 0 0 Z " fill="#332D2A" transform="translate(263,221)"/>
<path d="M0 0 C5.28 0 10.56 0 16 0 C16.09079834 1.28189209 16.18159668 2.56378418 16.27514648 3.88452148 C16.87767537 9.25330995 18.57753499 13.86574853 20.59765625 18.84765625 C20.95137802 19.74495956 21.30509979 20.64226288 21.66954041 21.5667572 C22.79026299 24.40287055 23.92607572 27.23264689 25.0625 30.0625 C25.82978551 31.99634457 26.59607158 33.93058601 27.36132812 35.86523438 C29.22936314 40.58148939 31.11094636 45.29212662 33 50 C34.58874812 47.61687782 35.58015169 45.78495281 36.60400391 43.17456055 C36.90416412 42.41334396 37.20432434 41.65212738 37.51358032 40.86784363 C37.83136444 40.04907242 38.14914856 39.23030121 38.4765625 38.38671875 C38.80667328 37.53954788 39.13678406 36.69237701 39.47689819 35.8195343 C40.1731675 34.02737407 40.86734025 32.2343981 41.55957031 30.44067383 C42.61840457 27.70454322 43.69174905 24.97439633 44.765625 22.24414062 C45.44100955 20.50035039 46.11551764 18.7562204 46.7890625 17.01171875 C47.27181137 15.79267097 47.27181137 15.79267097 47.76431274 14.54899597 C49.41400204 10.22248382 50.48388758 6.7100486 50 2 C49.505 1.01 49.505 1.01 49 0 C52.3 0 55.6 0 59 0 C58.10667969 1.07765625 57.21335938 2.1553125 56.29296875 3.265625 C52.48117129 8.3629129 50.46006358 13.80113162 48.3125 19.75 C47.45249934 22.04582641 46.59179562 24.34138956 45.73046875 26.63671875 C44.82006909 29.09105556 43.909921 31.54548569 43 34 C41.30167265 38.56828468 39.58595085 43.12930309 37.84115601 47.68005371 C37.13348491 49.54019706 36.44418281 51.40729497 35.75512695 53.27441406 C35.32288818 54.40202148 34.89064941 55.52962891 34.4453125 56.69140625 C33.88094482 58.19489624 33.88094482 58.19489624 33.30517578 59.72875977 C32 62 32 62 29.91842651 62.64195251 C29.28534576 62.76010818 28.65226501 62.87826385 28 63 C24.80576061 56.84756213 22.13980875 50.59303975 19.59375 44.1484375 C18.75930351 42.05982034 17.92466226 39.97128099 17.08984375 37.8828125 C15.79046649 34.62083929 14.49327564 31.35803128 13.19970703 28.09375 C11.94122414 24.92204908 10.67427517 21.75383323 9.40625 18.5859375 C9.02384155 17.61393402 8.64143311 16.64193054 8.24743652 15.64047241 C6.248299 10.660339 4.15156292 6.34416254 1 2 C0.67 1.34 0.34 0.68 0 0 Z " fill="#322C29" transform="translate(159,222)"/>
<path d="M0 0 C5.28 0 10.56 0 16 0 C15.34 1.32 14.68 2.64 14 4 C13.69231947 6.54877498 13.69231947 6.54877498 13.7253418 9.33178711 C13.71580978 10.39646713 13.70627777 11.46114716 13.69645691 12.55809021 C13.69782402 14.27537071 13.69782402 14.27537071 13.69921875 16.02734375 C13.69493362 17.20841202 13.6906485 18.38948029 13.68623352 19.6063385 C13.68049136 22.10368204 13.67998911 24.6010423 13.68432617 27.09838867 C13.68748504 30.91939832 13.66402811 34.73963302 13.63867188 38.56054688 C13.63639878 40.98697819 13.63569543 43.41341159 13.63671875 45.83984375 C13.627509 46.98267319 13.61829926 48.12550262 13.60881042 49.30296326 C13.61503922 50.37079544 13.62126801 51.43862762 13.62768555 52.53881836 C13.62705612 53.47495468 13.6264267 54.411091 13.6257782 55.37559509 C13.90987061 58.58323152 13.90987061 58.58323152 17 63 C11.39 63 5.78 63 0 63 C0 62.34 0 61.68 0 61 C0.66 61 1.32 61 2 61 C2.04632915 53.48958306 2.08187214 45.97918094 2.10362434 38.46865368 C2.11406404 34.98124839 2.12822649 31.49394084 2.15087891 28.0065918 C2.17675512 23.99787454 2.18647123 19.98926003 2.1953125 15.98046875 C2.20563507 14.72727341 2.21595764 13.47407806 2.22659302 12.1829071 C2.22674408 11.02193008 2.22689514 9.86095306 2.22705078 8.66479492 C2.231492 7.64109299 2.23593323 6.61739105 2.24050903 5.56266785 C2.18180912 2.75864366 2.18180912 2.75864366 0 0 Z " fill="#34302D" transform="translate(60,222)"/>
<path d="M0 0 C5.61 0 11.22 0 17 0 C16.01 1.32 15.02 2.64 14 4 C13.56229455 6.51764556 13.56229455 6.51764556 13.64355469 9.27172852 C13.64055359 10.32284317 13.63755249 11.37395782 13.63446045 12.45692444 C13.64680725 13.58617844 13.65915405 14.71543243 13.671875 15.87890625 C13.67374817 17.04252182 13.67562134 18.20613739 13.67755127 19.40501404 C13.68427146 21.86370715 13.69818522 24.32238957 13.71875 26.78100586 C13.74990802 30.55137022 13.75972171 34.32131652 13.765625 38.09179688 C13.77479493 40.47917178 13.78517066 42.86654242 13.796875 45.25390625 C13.80112488 46.38518448 13.80537476 47.51646271 13.80975342 48.68202209 C13.81936096 49.72998459 13.82896851 50.77794708 13.83886719 51.85766602 C13.84910919 53.24188499 13.84910919 53.24188499 13.85955811 54.65406799 C13.907633 57.15451584 13.907633 57.15451584 15 60 C15.66 60.33 16.32 60.66 17 61 C17 61.66 17 62.32 17 63 C11.39 63 5.78 63 0 63 C0 62.34 0 61.68 0 61 C0.66 61 1.32 61 2 61 C2.99644211 58.01067368 3.13794665 55.99693055 3.16113281 52.87353516 C3.17074036 51.82880035 3.1803479 50.78406555 3.19024658 49.70767212 C3.19449646 48.57953094 3.19874634 47.45138977 3.203125 46.2890625 C3.20882507 45.12877533 3.21452515 43.96848816 3.22039795 42.77304077 C3.22984923 40.31680209 3.23638243 37.86055072 3.24023438 35.40429688 C3.24994338 31.64691059 3.28096781 27.89007045 3.3125 24.1328125 C3.31902973 21.74739908 3.32428032 19.36198175 3.328125 16.9765625 C3.3404718 15.85246979 3.3528186 14.72837708 3.36553955 13.57022095 C3.36253845 12.51918182 3.35953735 11.4681427 3.35644531 10.38525391 C3.36191376 9.00317245 3.36191376 9.00317245 3.36749268 7.59317017 C3.08822396 4.41209601 3.08822396 4.41209601 0 0 Z " fill="#2F2A27" transform="translate(231,222)"/>
<path d="M0 0 C10.44444444 0 10.44444444 0 16 4 C19.87463098 8.13293971 20.42092537 12.35842859 20.34765625 17.96875 C19.70261942 21.73750454 17.76958229 23.41505653 15 26 C10.0499892 29.11143536 6.39204097 28 0 28 C0 18.76 0 9.52 0 0 Z " fill="#EEEDEC" transform="translate(406,223)"/>
<path d="M0 0 C2.34688889 2.90061128 3.857427 5.6817303 5.26171875 9.1328125 C5.65810547 10.10347656 6.05449219 11.07414063 6.46289062 12.07421875 C6.86701172 13.08097656 7.27113281 14.08773437 7.6875 15.125 C8.10322266 16.13949219 8.51894531 17.15398437 8.94726562 18.19921875 C12 25.72829433 12 25.72829433 12 28 C4.74 28 -2.52 28 -10 28 C-9.22535932 24.12679662 -8.3673787 21.09522235 -6.93359375 17.48046875 C-6.3293457 15.9480957 -6.3293457 15.9480957 -5.71289062 14.38476562 C-5.29201172 13.32966797 -4.87113281 12.27457031 -4.4375 11.1875 C-4.01275391 10.11306641 -3.58800781 9.03863281 -3.15039062 7.93164062 C-2.10399344 5.28625448 -1.05374756 2.64246489 0 0 Z " fill="#E49595" transform="translate(345,232)"/>
<path d="M0 0 C3.3 0 6.6 0 10 0 C9.11183594 1.06476563 8.22367188 2.12953125 7.30859375 3.2265625 C3.36264957 8.49785314 1.2894881 14.22491367 -0.9375 20.375 C-1.79784273 22.68241636 -2.65852185 24.98970732 -3.51953125 27.296875 C-3.9367041 28.42802734 -4.35387695 29.55917969 -4.78369141 30.72460938 C-6.51196847 35.37867704 -8.31346196 40.00284762 -10.125 44.625 C-10.69032669 46.07543412 -11.25545657 47.52594498 -11.8203125 48.9765625 C-12.20960938 49.97429687 -12.59890625 50.97203125 -13 52 C-13.66 52 -14.32 52 -15 52 C-13.34223111 45.77639924 -11.20872271 39.78717195 -8.86328125 33.796875 C-8.5775827 33.06553345 -8.29188416 32.33419189 -7.99752808 31.58068848 C-6.80168327 28.52760499 -5.60147357 25.47636996 -4.3894043 22.4296875 C-3.49664775 20.18052235 -2.61664439 17.92669295 -1.73828125 15.671875 C-1.46333328 14.99050476 -1.18838531 14.30913452 -0.90510559 13.6071167 C0.6479846 9.59108419 1.37993634 6.30197508 1 2 C0.67 1.34 0.34 0.68 0 0 Z " fill="#503E3B" transform="translate(208,222)"/>
<path d="M0 0 C6.6752034 -0.02526945 13.35039457 -0.04283268 20.02563477 -0.05493164 C22.29842591 -0.05997325 24.5712138 -0.06680637 26.84399414 -0.07543945 C30.10303551 -0.08751261 33.36203417 -0.09322987 36.62109375 -0.09765625 C37.64400009 -0.10281754 38.66690643 -0.10797882 39.72080994 -0.11329651 C40.66170975 -0.11337204 41.60260956 -0.11344757 42.57202148 -0.11352539 C43.40475082 -0.115746 44.23748016 -0.11796661 45.09544373 -0.12025452 C47 0 47 0 48 1 C48.07205511 2.68608966 48.08386068 4.37500659 48.0625 6.0625 C48.05347656 6.98160156 48.04445313 7.90070313 48.03515625 8.84765625 C48.02355469 9.55792969 48.01195312 10.26820313 48 11 C47.34 11 46.68 11 46 11 C44.74772516 9.52295788 43.49833478 8.04172601 42.31640625 6.5078125 C40.88235909 4.73237056 40.88235909 4.73237056 38 3 C38 2.34 38 1.68 38 1 C25.46 1 12.92 1 0 1 C0 0.67 0 0.34 0 0 Z " fill="#674C49" transform="translate(263,221)"/>
<path d="M0 0 C2 2 2 2 2.2068634 3.87727356 C2.18734116 4.63940659 2.16781891 5.40153961 2.14770508 6.18676758 C2.13141556 7.05139114 2.11512604 7.91601471 2.0983429 8.80683899 C2.07233505 9.74327744 2.04632721 10.67971588 2.01953125 11.64453125 C1.98936036 13.62042956 1.96009185 15.59634181 1.93164062 17.57226562 C1.87589662 20.69319327 1.81247626 23.81342829 1.73266602 26.93383789 C1.66003675 29.94164184 1.61888194 32.94860512 1.58203125 35.95703125 C1.54995071 36.887397 1.51787018 37.81776276 1.4848175 38.77632141 C1.43081333 44.37902245 1.43081333 44.37902245 4.52612305 49.00268555 C5.34250244 49.66179932 6.15888184 50.32091309 7 51 C7 51.66 7 52.32 7 53 C3.04 53 -0.92 53 -5 53 C-4.2884375 51.63875 -4.2884375 51.63875 -3.5625 50.25 C-1.62827774 46.22681771 -0.88605447 43.0369312 -0.79467773 38.59863281 C-0.77473251 37.7380426 -0.75478729 36.87745239 -0.73423767 35.99078369 C-0.71752518 35.07085632 -0.70081268 34.15092896 -0.68359375 33.203125 C-0.66281265 32.25435486 -0.64203156 31.30558472 -0.62062073 30.32806396 C-0.55532066 27.30211518 -0.49633112 24.2760808 -0.4375 21.25 C-0.3942962 19.19660579 -0.35068131 17.14322018 -0.30664062 15.08984375 C-0.19965927 10.0599832 -0.09833677 5.03003668 0 0 Z " fill="#5A5754" transform="translate(99,232)"/>
<path d="M0 0 C3.96 0 7.92 0 12 0 C10.515 1.98 10.515 1.98 9 4 C7.80902485 8.82921917 7.78987132 13.7299516 7.68359375 18.6796875 C7.66281265 19.49245148 7.64203156 20.30521545 7.62062073 21.14260864 C7.55562421 23.71999257 7.49647407 26.29747194 7.4375 28.875 C7.39426723 30.63021791 7.35065148 32.38542643 7.30664062 34.140625 C7.19999451 38.42698738 7.09858886 42.71344504 7 47 C6.67 47 6.34 47 6 47 C5.98018066 45.8447583 5.96036133 44.6895166 5.93994141 43.49926758 C5.86373059 39.20331439 5.77503711 34.90769308 5.68261719 30.61206055 C5.64439134 28.75470544 5.60952737 26.89727792 5.578125 25.03979492 C5.53233539 22.36611088 5.47436421 19.69292258 5.4140625 17.01953125 C5.40251129 16.19226028 5.39096008 15.36498932 5.37905884 14.51264954 C5.22026026 8.27543908 4.57205969 4.57205969 0 0 Z " fill="#594341" transform="translate(135,222)"/>
<path d="M0 0 C0.66 0.66 1.32 1.32 2 2 C1.3503125 3.53720703 1.3503125 3.53720703 0.6875 5.10546875 C0.12453994 6.46595556 -0.43793456 7.82664335 -1 9.1875 C-1.28617187 9.86103516 -1.57234375 10.53457031 -1.8671875 11.22851562 C-3.38092484 14.92275555 -4.56898719 17.99575268 -4 22 C-3.34 22.99 -2.68 23.98 -2 25 C-5.63 25 -9.26 25 -13 25 C-13 24.34 -13 23.68 -13 23 C-12.26394531 22.49984375 -11.52789062 21.9996875 -10.76953125 21.484375 C-6.88425163 17.99913122 -5.55414316 14.04589154 -3.6875 9.25 C-3.32849609 8.36183594 -2.96949219 7.47367187 -2.59960938 6.55859375 C-1.72002666 4.37722861 -0.85410104 2.19143928 0 0 Z " fill="#433634" transform="translate(332,260)"/>
<path d="M0 0 C3.3 0 6.6 0 10 0 C8.35 1.98 6.7 3.96 5 6 C3.31237149 4.3545622 1.6459651 2.68711423 0 1 C0 0.67 0 0.34 0 0 Z " fill="#342D2B" transform="translate(208,222)"/>
</svg>
